HIERARCHY
ROOT Hips
{
	OFFSET -3.958830 18.904000 13.208200
	CHANNELS 6 Xposition Yposition Zposition Zrotation Yrotation Xrotation 
	JOINT LHipJoint
	{
		OFFSET 0.000000 0.000000 0.000000
		CHANNELS 3 Zrotation Yrotation Xrotation
		JOINT LeftUpLeg
		{
			OFFSET 1.800000 -1.400000 0.085000
			CHANNELS 3 Zrotation Yrotation Xrotation
			JOINT LeftLeg
			{
				OFFSET 2.215000 -6.000000 0.000000
				CHANNELS 3 Zrotation Yrotation Xrotation
				JOINT LeftFoot
				{
					OFFSET 2.500000 -6.900000 0.000000
					CHANNELS 3 Zrotation Yrotation Xrotation
					JOINT LeftToeBase
					{
						OFFSET 0.200000 -0.500000 1.950000
						CHANNELS 3 Zrotation Yrotation Xrotation
						End Site
						{
							OFFSET 0.000000 0.000000 0.000000
						}
					}
				}
			}
		}
	}
	JOINT RHipJoint
	{
		OFFSET 0.000000 0.000000 0.000000
		CHANNELS 3 Zrotation Yrotation Xrotation
		JOINT RightUpLeg
		{
			OFFSET -1.800000 -1.400000 0.085000
			CHANNELS 3 Zrotation Yrotation Xrotation
			JOINT RightLeg
			{
				OFFSET -2.215000 -6.000000 0.000000
				CHANNELS 3 Zrotation Yrotation Xrotation
				JOINT RightFoot
				{
					OFFSET -2.500000 -6.900000 0.000000
					CHANNELS 3 Zrotation Yrotation Xrotation
					JOINT RightToeBase
					{
						OFFSET -0.200000 -0.500000 1.950000
						CHANNELS 3 Zrotation Yrotation Xrotation
						End Site
						{
							OFFSET 0.000000 0.000000 0.000000
						}
					}
				}
			}
		}
	}
	JOINT LowerBack
	{
		OFFSET 0.000000 0.000000 0.000000
		CHANNELS 3 Zrotation Yrotation Xrotation
		JOINT Spine
		{
			OFFSET -0.087000 1.940000 -0.288900
			CHANNELS 3 Zrotation Yrotation Xrotation
			JOINT Spine1
			{
				OFFSET 0.000000 1.950000 0.060000
				CHANNELS 3 Zrotation Yrotation Xrotation
				JOINT Neck
				{
					OFFSET 0.000000 0.000000 0.000000
					CHANNELS 3 Zrotation Yrotation Xrotation
					JOINT Neck1
					{
						OFFSET 0.000000 1.600000 0.340000
						CHANNELS 3 Zrotation Yrotation Xrotation
						JOINT Head
						{
							OFFSET 0.000000 1.667000 -0.240000
							CHANNELS 3 Zrotation Yrotation Xrotation
							End Site
							{
								OFFSET 0.000000 0.000000 0.000000
							}
						}
					}
				}
				JOINT LeftShoulder
				{
					OFFSET 0.000000 0.000000 0.000000
					CHANNELS 3 Zrotation Yrotation Xrotation
					JOINT LeftArm
					{
						OFFSET 2.700000 1.550000 -0.730000
						CHANNELS 3 Zrotation Yrotation Xrotation
						JOINT LeftForeArm
						{
							OFFSET 5.450000 0.000000 0.000000
							CHANNELS 3 Zrotation Yrotation Xrotation
							JOINT LeftHand
							{
								OFFSET 3.450000 0.000000 0.000000
								CHANNELS 3 Zrotation Yrotation Xrotation
								JOINT LeftHandIndex1
								{
									OFFSET 0.750000 0.000000 0.000000
									CHANNELS 3 Zrotation Yrotation Xrotation
									End Site
									{
										OFFSET 0.000000 0.000000 0.000000
									}
								}
							}
						}
					}
				}
				JOINT RightShoulder
				{
					OFFSET 0.000000 0.000000 0.000000
					CHANNELS 3 Zrotation Yrotation Xrotation
					JOINT RightArm
					{
						OFFSET -2.700000 1.550000 -0.730000
						CHANNELS 3 Zrotation Yrotation Xrotation
						JOINT RightForeArm
						{
							OFFSET -5.450000 0.000000 0.000000
							CHANNELS 3 Zrotation Yrotation Xrotation
							JOINT RightHand
							{
								OFFSET -3.450000 0.000000 0.000000
								CHANNELS 3 Zrotation Yrotation Xrotation
								JOINT RightHandIndex1
								{
									OFFSET -0.750000 0.000000 0.000000
									CHANNELS 3 Zrotation Yrotation Xrotation
									End Site
									{
										OFFSET 0.000000 0.000000 0.000000
									}
								}
							}
						}
					}
				}
			}
		}
	}
}
MOTION
Frames: 14
Frame Time: 0.016667
0.797820 17.013020 -1.434650 -5.543926 -12.776425 11.504451 -15.223612 13.316730 3.851289 -4.078176 -2.736869 -13.490499 -8.026638 3.326892 1.633211 -1.365915 3.911392 3.744447 0.335670 -0.487960 0.407140 17.973688 -10.923209 2.918581 -15.268816 0.659617 8.471980 6.697033 -7.008412 6.542432 -1.055231 -5.404464 2.785930 -0.207630 0.741800 0.588100 -2.851825 -2.317252 -8.545453 9.028287 4.905256 4.698829 -0.755150 5.656499 -11.261063 3.995722 1.208102 -11.813100 -2.124132 1.907011 53.992989 -6.747260 2.738840 -16.519680 -22.602688 -7.648116 2.951143 13.385249 14.661193 3.222725 8.547278 -2.003433 -1.656130 -4.095317 2.066904 1.556130 0.261250 0.115620 0.340430 15.474659 8.951875 6.748499 -13.925047 -9.576351 -1.462298 -8.306764 5.811240 0.466796 1.805841 -0.805538 -0.707810 0.647130 0.250770 -0.448100 
0.793300 17.012510 -1.437210 -5.502111 -12.879492 11.511504 -15.227025 13.311940 3.851284 -4.110960 -2.748346 -13.530911 -8.030814 3.323087 1.638285 -1.367927 3.915315 3.743216 0.330860 -0.493510 0.396320 17.972414 -10.915485 2.925437 -15.177947 0.655805 8.437235 6.718380 -6.988800 6.401413 -1.052762 -5.403065 2.788423 -0.208930 0.749530 0.594310 -2.843060 -2.317477 -8.547319 8.916918 4.925966 4.753753 -0.757230 5.667367 -11.337080 3.995487 1.134319 -11.773222 -2.242542 2.016031 53.826142 -6.720480 2.774930 -16.385320 -22.540967 -7.612818 2.912370 13.514256 14.653992 3.245213 8.189818 -2.025301 -1.675516 -4.097437 2.074338 1.554110 0.268110 0.112100 0.343320 15.427230 8.986052 6.721779 -14.120395 -9.548296 -1.430057 -7.877705 5.696015 0.467224 1.799467 -0.807736 -0.708250 0.644860 0.256300 -0.445780 
0.789890 17.012010 -1.439470 -5.499397 -12.959480 11.504461 -15.226566 13.313123 3.850507 -4.103318 -2.757267 -13.583656 -8.056969 3.327165 1.697766 -1.362594 3.915085 3.739574 0.333630 -0.489540 0.387640 17.973927 -10.908219 2.932836 -15.054644 0.643553 8.416483 6.718845 -6.965722 6.283691 -1.055171 -5.400256 2.787442 -0.208680 0.750940 0.606440 -2.844410 -2.327189 -8.549276 8.927489 4.932291 4.830899 -0.783908 5.679643 -11.414222 3.990802 1.012078 -11.732666 -2.480830 2.156756 53.726440 -6.617020 2.768850 -16.315740 -22.453703 -7.569393 2.864212 13.633376 14.636234 3.254619 7.698882 -2.089477 -1.697517 -4.090805 2.095233 1.550580 0.270740 0.115030 0.348830 15.353169 9.054348 6.694276 -14.403338 -9.558932 -1.374777 -7.310482 5.588383 0.467408 1.795821 -0.817322 -0.699160 0.634340 0.256450 -0.439780 
0.787170 17.011510 -1.441660 -5.459411 -13.022282 11.490686 -15.227181 13.315713 3.852807 -4.136975 -2.772479 -13.631983 -8.069988 3.330270 1.762774 -1.358227 3.910376 3.737404 0.337470 -0.483950 0.381400 17.973361 -10.903163 2.937644 -14.975703 0.639394 8.386701 6.726090 -6.950097 6.215893 -1.057783 -5.394873 2.786959 -0.208040 0.750120 0.614500 -2.841230 -2.338451 -8.553071 8.891522 4.925718 4.894964 -0.797977 5.672772 -11.507414 3.983950 0.870738 -11.723214 -2.776312 2.327574 53.777017 -6.436350 2.750500 -16.308140 -22.339759 -7.496724 2.839413 13.588960 14.607452 3.242373 7.484982 -2.134236 -1.707282 -4.085855 2.109355 1.549010 0.270070 0.118410 0.352530 15.269146 9.113125 6.670899 -14.619553 -9.513304 -1.343025 -6.850024 5.467729 0.467167 1.794151 -0.822520 -0.690880 0.626670 0.256390 -0.435120 
0.784030 17.011050 -1.443340 -5.364120 -13.099424 11.468810 -15.231554 13.314599 3.856383 -4.217413 -2.787247 -13.659988 -8.078763 3.334501 1.818852 -1.356474 3.902867 3.737101 0.337480 -0.478190 0.373050 17.968975 -10.901326 2.939996 -14.957582 0.646127 8.352705 6.725769 -6.936920 6.167943 -1.057001 -5.390664 2.788859 -0.205780 0.750740 0.614680 -2.826313 -2.339026 -8.556753 8.728109 4.940254 4.937162 -0.774087 5.669821 -11.625008 3.981384 0.767646 -11.705938 -2.990043 2.461332 53.853489 -6.288440 2.744100 -16.303650 -22.247385 -7.405777 2.807012 13.520718 14.523005 3.222680 7.456445 -2.132595 -1.705934 -4.085341 2.111949 1.546080 0.270240 0.118730 0.354040 15.214426 9.124739 6.637266 -14.769875 -9.466248 -1.318454 -6.546110 5.416609 0.465487 1.791963 -0.823548 -0.687410 0.625480 0.257730 -0.431060 
0.781210 17.010540 -1.445320 -5.309840 -13.174683 11.427276 -15.230596 13.315395 3.858393 -4.236034 -2.790004 -13.661485 -8.123466 3.345282 1.863969 -1.351568 3.899501 3.736467 0.342960 -0.468150 0.371600 17.969540 -10.901347 2.941813 -14.925778 0.645194 8.344009 6.711330 -6.926197 6.152870 -1.060081 -5.385868 2.790487 -0.202560 0.748670 0.615510 -2.826667 -2.339887 -8.558932 8.686931 4.935849 4.994387 -0.829093 5.664422 -11.682038 3.980544 0.668888 -11.688071 -3.199035 2.596202 53.965034 -6.132520 2.746980 -16.393560 -22.193830 -7.332475 2.795213 13.412386 14.426041 3.194640 7.613046 -2.048456 -1.698857 -4.083631 2.112723 1.544930 0.267650 0.122580 0.357320 15.170025 9.152383 6.588633 -14.968492 -9.417047 -1.287994 -6.121114 5.389806 0.463144 1.790422 -0.826067 -0.682140 0.624510 0.254120 -0.427280 
0.778420 17.010450 -1.446900 -5.274565 -13.237236 11.380379 -15.227074 13.318103 3.859648 -4.224124 -2.788096 -13.657707 -8.180128 3.360151 1.915284 -1.349125 3.901757 3.737077 0.349050 -0.459040 0.372380 17.971948 -10.901136 2.945918 -14.895029 0.639606 8.360059 6.726535 -6.923843 6.134604 -1.064592 -5.383908 2.793480 -0.198310 0.749260 0.614830 -2.833615 -2.343846 -8.563844 8.707664 4.918174 5.045399 -0.922521 5.657217 -11.738731 3.974760 0.584386 -11.673561 -3.391670 2.719644 54.139344 -5.982690 2.741660 -16.493100 -22.214947 -7.281522 2.792414 13.312502 14.327874 3.171937 7.940919 -1.897343 -1.687369 -4.084440 2.104863 1.546860 0.265840 0.126600 0.362730 15.199307 9.183755 6.534566 -15.174011 -9.388835 -1.265136 -5.825254 5.422520 0.463026 1.787013 -0.826803 -0.680990 0.628790 0.248940 -0.424400 
0.776390 17.010780 -1.448200 -5.281002 -13.285122 11.346691 -15.221884 13.326553 3.861044 -4.184927 -2.781680 -13.660529 -8.211855 3.372162 1.950270 -1.345982 3.900587 3.739875 0.354170 -0.450240 0.375150 17.975344 -10.900133 2.950331 -14.828189 0.624925 8.384393 6.702976 -6.911107 6.123505 -1.067686 -5.375801 2.799315 -0.195040 0.749740 0.609370 -2.844697 -2.358881 -8.570009 8.819155 4.893072 5.093399 -1.006364 5.656126 -11.815774 3.966081 0.457881 -11.662852 -3.694504 2.868927 54.361208 -5.841060 2.720690 -16.574250 -22.254283 -7.220216 2.784724 13.226425 14.192155 3.144599 8.263208 -1.592854 -1.676393 -4.085947 2.090616 1.547500 0.262430 0.129050 0.366290 15.251774 9.237669 6.484856 -15.424011 -9.407998 -1.234259 -5.591276 5.493327 0.463486 1.785285 -0.825962 -0.680790 0.636320 0.243720 -0.421570 
0.774010 17.010460 -1.449090 -5.296272 -13.309301 11.320089 -15.218389 13.332013 3.860159 -4.123251 -2.767988 -13.651260 -8.257984 3.383442 1.963982 -1.344000 3.901121 3.740488 0.360000 -0.439820 0.375940 17.978161 -10.898377 2.955240 -14.744662 0.602313 8.435418 6.676317 -6.898551 6.095496 -1.071578 -5.370438 2.805766 -0.189080 0.748130 0.603990 -2.852932 -2.369599 -8.573521 8.902681 4.880255 5.110533 -1.049688 5.655119 -11.821807 3.959581 0.351086 -11.671944 -3.958812 2.992413 54.548593 -5.684470 2.684470 -16.727250 -22.304130 -7.170982 2.808123 12.978880 14.025184 3.092700 8.901316 -1.265483 -1.647286 -4.091161 2.073846 1.549400 0.258750 0.132970 0.371290 15.318503 9.285830 6.452443 -15.615829 -9.478171 -1.206608 -5.481332 5.579238 0.467635 1.782218 -0.824894 -0.681490 0.643380 0.237660 -0.419430 
0.771600 17.010090 -1.449580 -5.287021 -13.328821 11.314153 -15.217732 13.334736 3.861510 -4.099083 -2.760007 -13.644907 -8.286824 3.386359 1.946890 -1.342961 3.899551 3.741884 0.363610 -0.432020 0.375890 17.978007 -10.897778 2.958976 -14.694173 0.588993 8.463756 6.670816 -6.891979 6.077684 -1.074069 -5.366917 2.810155 -0.184520 0.747280 0.599500 -2.852577 -2.373995 -8.578800 8.915095 4.892128 5.103964 -1.070773 5.667060 -11.917367 3.965348 0.279690 -11.663479 -4.152952 3.056356 54.766867 -5.594890 2.625860 -16.799110 -22.334157 -7.124521 2.802159 12.839125 13.828516 3.048257 9.391535 -1.025025 -1.622555 -4.095789 2.059502 1.550590 0.256350 0.135800 0.374630 15.350186 9.319453 6.406263 -15.840644 -9.612326 -1.152222 -5.167583 5.715364 0.474020 1.776899 -0.826414 -0.682290 0.649200 0.233420 -0.417380 
0.769240 17.008850 -1.449500 -5.280203 -13.340204 11.303691 -15.217448 13.334128 3.858713 -4.066069 -2.746880 -13.623792 -8.319506 3.395707 1.949073 -1.342566 3.903795 3.743717 0.363980 -0.429380 0.374630 17.978734 -10.895513 2.964070 -14.658316 0.575522 8.524061 6.686273 -6.890478 6.023043 -1.076571 -5.368404 2.815113 -0.182650 0.750920 0.594260 -2.853641 -2.374481 -8.579634 8.926450 4.910321 5.078590 -1.075679 5.679981 -11.947147 3.969086 0.204743 -11.647750 -4.348584 3.103155 54.897914 -5.517950 2.543950 -16.860400 -22.356960 -7.102775 2.807620 12.702809 13.648604 3.005674 9.876872 -0.816171 -1.599092 -4.103140 2.043100 1.551860 0.255980 0.135800 0.377730 15.377085 9.377244 6.359253 -16.107876 -9.809527 -1.084985 -4.748451 5.889795 0.484062 1.768136 -0.827289 -0.685520 0.658750 0.232080 -0.415670 
0.767820 17.007920 -1.449610 -5.285710 -13.359778 11.293867 -15.215033 13.332737 3.856672 -4.037494 -2.728842 -13.583131 -8.342379 3.399754 1.904903 -1.344658 3.909821 3.745856 0.360550 -0.431000 0.371360 17.981851 -10.893508 2.968028 -14.628195 0.563506 8.573157 6.690971 -6.888030 5.971661 -1.077011 -5.368156 2.821645 -0.182430 0.756940 0.586510 -2.861669 -2.373763 -8.579650 8.980943 4.918720 5.042936 -1.109271 5.690222 -11.941522 3.966108 0.148273 -11.658136 -4.509901 3.151805 55.093036 -5.435770 2.476100 -16.873810 -22.363250 -7.098338 2.817768 12.588853 13.516928 2.972937 10.194110 -0.657344 -1.584778 -4.110821 2.023711 1.553930 0.256690 0.133010 0.378720 15.388520 9.422148 6.349534 -16.252609 -9.937274 -1.054403 -4.530307 5.892118 0.486524 1.762100 -0.820701 -0.691830 0.671250 0.234450 -0.415310 
0.766330 17.007180 -1.449940 -5.312925 -13.397204 11.295017 -15.210868 13.333578 3.854629 -4.001280 -2.718260 -13.571010 -8.344878 3.401810 1.898983 -1.345742 3.911869 3.744952 0.358750 -0.430080 0.368160 17.985789 -10.892374 2.973508 -14.591515 0.552765 8.611125 6.694238 -6.882280 5.916073 -1.078038 -5.367545 2.823618 -0.180800 0.758830 0.583640 -2.872847 -2.373872 -8.581265 9.065381 4.927731 5.020857 -1.167077 5.709461 -11.979948 3.960786 0.117673 -11.663050 -4.609715 3.191717 55.300682 -5.344780 2.426250 -16.883030 -22.364588 -7.064327 2.796014 12.528705 13.375848 2.947449 10.374523 -0.544231 -1.576936 -4.116639 2.012818 1.554080 0.256680 0.133240 0.378690 15.390080 9.410620 6.351871 -16.287939 -9.968430 -1.051219 -4.535899 5.756292 0.481524 1.761995 -0.814385 -0.693650 0.676920 0.236500 -0.414180 
0.764720 17.006650 -1.450350 -5.322147 -13.412048 11.300923 -15.209455 13.336382 3.853465 -3.996528 -2.718763 -13.579678 -8.318337 3.402332 1.922161 -1.346512 3.914274 3.745822 0.356410 -0.433060 0.366800 17.986866 -10.890555 2.977832 -14.555148 0.545374 8.642909 6.696600 -6.878128 5.875945 -1.077950 -5.367172 2.825708 -0.181700 0.763700 0.582950 -2.876048 -2.379313 -8.582895 9.101656 4.917694 4.989892 -1.185805 5.700925 -12.045996 3.961047 0.075679 -11.666133 -4.722885 3.249154 55.486983 -5.284330 2.388440 -16.765700 -22.357407 -7.004453 2.777201 12.435829 13.261230 2.926959 10.667584 -0.405574 -1.564298 -4.126854 2.003271 1.552590 0.259010 0.131300 0.378680 15.384311 9.387179 6.343468 -16.300570 -9.927949 -1.060388 -4.550525 5.645478 0.476418 1.762113 -0.808807 -0.694950 0.682140 0.239460 -0.413320 
